<?xml version="1.0" encoding="utf-8"?>
<!-- Generator: Adobe Illustrator 17.1.0, SVG Export Plug-In . SVG Version: 6.00 Build 0)  -->
<!DOCTYPE svg PUBLIC "-//W3C//DTD SVG 1.1//EN" "http://www.w3.org/Graphics/SVG/1.1/DTD/svg11.dtd">
<svg version="1.1" id="Layer_1" xmlns="http://www.w3.org/2000/svg" xmlns:xlink="http://www.w3.org/1999/xlink" x="0px" y="0px"
	 viewBox="0 0 357.48 182.677" enable-background="new 0 0 357.48 182.677" xml:space="preserve">
<g>
	<path fill="#000000" d="M66.716,172.662l1.806-2.01c0.744,0.819,1.47,1.302,2.382,1.302c1.081,0,1.749-0.651,1.749-2.158v-8.395
		h2.942v8.525c0,1.545-0.446,2.699-1.229,3.48c-0.8,0.801-1.972,1.21-3.387,1.21C68.95,174.616,67.61,173.723,66.716,172.662"/>
	<path fill="#000000" d="M81.567,168.846v-7.445h2.867v7.371c0,2.122,1.061,3.22,2.811,3.22c1.748,0,2.809-1.061,2.809-3.127v-7.464
		h2.867v7.352c0,3.947-2.215,5.882-5.714,5.882S81.567,172.68,81.567,168.846"/>
	<path fill="#000000" d="M97.942,172.531l1.694-2.029c1.173,0.968,2.402,1.582,3.89,1.582c1.173,0,1.88-0.465,1.88-1.228v-0.037
		c0-0.726-0.446-1.098-2.624-1.657c-2.625-0.67-4.319-1.395-4.319-3.983v-0.037c0-2.364,1.899-3.928,4.561-3.928
		c1.897,0,3.518,0.596,4.839,1.657l-1.489,2.16c-1.155-0.801-2.289-1.285-3.388-1.285c-1.098,0-1.675,0.502-1.675,1.135v0.037
		c0,0.856,0.559,1.136,2.811,1.713c2.643,0.688,4.132,1.638,4.132,3.908v0.038c0,2.587-1.973,4.039-4.784,4.039
		C101.498,174.616,99.505,173.927,97.942,172.531"/>
</g>
<polygon fill="#000000" points="112.738,161.401 112.738,164.044 116.703,164.044 116.703,174.43 119.569,174.43 119.569,164.044 
	123.534,164.044 123.534,161.401 "/>
<rect x="128.587" y="161.402" fill="#000000" width="2.867" height="13.029"/>
<g>
	<path fill="#000000" d="M137.068,167.953v-0.038c0-3.703,2.79-6.737,6.792-6.737c2.458,0,3.929,0.818,5.139,2.01l-1.826,2.104
		c-1.003-0.912-2.028-1.472-3.332-1.472c-2.196,0-3.777,1.825-3.777,4.058v0.037c0,2.234,1.545,4.096,3.777,4.096
		c1.491,0,2.402-0.596,3.425-1.527l1.825,1.843c-1.34,1.433-2.83,2.327-5.342,2.327
		C139.915,174.654,137.068,171.694,137.068,167.953"/>
</g>
<polygon fill="#000000" points="154.236,161.401 154.236,174.43 164.157,174.43 164.157,171.88 157.085,171.88 157.085,169.144 
	163.226,169.144 163.226,166.594 157.085,166.594 157.085,163.951 164.064,163.951 164.064,161.401 "/>
<polygon fill="#000000" points="188.41,161.401 184.986,166.911 181.563,161.401 178.471,161.401 178.471,174.43 181.282,174.43 
	181.282,165.98 184.911,171.489 184.986,171.489 188.652,165.924 188.652,174.43 191.502,174.43 191.502,161.401 "/>
<path fill="#000000" d="M202.8,164.751l1.732,4.225h-3.463L202.8,164.751z M201.515,161.308l-5.584,13.122h2.924l1.19-2.922h5.51
	l1.191,2.922h2.996l-5.583-13.122H201.515z"/>
<polygon fill="#000000" points="212.133,161.401 212.133,164.044 216.097,164.044 216.097,174.43 218.964,174.43 218.964,164.044 
	222.929,164.044 222.929,161.401 "/>
<polygon fill="#000000" points="227.476,161.401 227.476,164.044 231.441,164.044 231.441,174.43 234.307,174.43 234.307,164.044 
	238.27,164.044 238.27,161.401 "/>
<polygon fill="#000000" points="243.263,161.401 243.263,174.43 253.185,174.43 253.185,171.88 246.112,171.88 246.112,169.144 
	252.254,169.144 252.254,166.594 246.112,166.594 246.112,163.951 253.093,163.951 253.093,161.401 "/>
<g>
	<path fill="#000000" d="M264.714,167.73c1.396,0,2.198-0.746,2.198-1.843v-0.038c0-1.228-0.857-1.861-2.253-1.861h-2.848v3.742
		H264.714z M258.945,161.401h5.956c1.656,0,2.94,0.465,3.796,1.322c0.727,0.726,1.117,1.749,1.117,2.977v0.038
		c0,2.103-1.134,3.425-2.792,4.039l3.184,4.653h-3.351l-2.791-4.169h-2.253v4.169h-2.866V161.401z"/>
	<path fill="#000000" d="M274.462,172.531l1.695-2.029c1.171,0.968,2.401,1.582,3.89,1.582c1.171,0,1.879-0.465,1.879-1.228v-0.037
		c0-0.726-0.447-1.098-2.624-1.657c-2.625-0.67-4.319-1.395-4.319-3.983v-0.037c0-2.364,1.899-3.928,4.561-3.928
		c1.897,0,3.518,0.596,4.839,1.657l-1.488,2.16c-1.155-0.801-2.29-1.285-3.389-1.285c-1.098,0-1.675,0.502-1.675,1.135v0.037
		c0,0.856,0.558,1.136,2.811,1.713c2.643,0.688,4.132,1.638,4.132,3.908v0.038c0,2.587-1.973,4.039-4.784,4.039
		C278.018,174.616,276.025,173.927,274.462,172.531"/>
</g>
<rect x="9.189" y="144.186" fill="#000000" width="333.662" height="3.249"/>
<g>
	<path fill="#000000" d="M85.185,35.304c0-13.499,6.274-22.609,13.726-22.609c7.451,0,13.725,9.11,13.725,22.609s-6.274,22.609-13.725,22.609
		C91.459,57.913,85.185,48.803,85.185,35.304 M128.664,35.304c0-15.565-14.246-28.183-29.812-28.183
		c-15.564,0-29.693,12.618-29.693,28.183c0,15.566,14.129,28.184,29.693,28.184C114.418,63.488,128.664,50.87,128.664,35.304"/>
	<path fill="#000000" d="M342.62,62.198V44.494h-3.813l-8.412,11.898h-22.288v-19.23h9.491c4.477,0,4.269,3.374,4.269,4.417h3.794V26.938h-3.794
		c0,1.043,0.208,4.417-4.269,4.417h-9.491V14.219h21.962l8.389,11.898h3.814V8.413h-53.485v3.794c1.042,0,4.416-0.208,4.416,4.269
		v37.657c0,4.478-3.374,4.27-4.416,4.27v3.794L342.62,62.198z"/>
	<path fill="#000000" d="M281.812,12.207V8.413h-23.737v3.794c1.042,0,4.417-0.208,4.417,4.27v37.656c0,4.478-3.375,4.27-4.417,4.27v0.002
		c-3.273,0-4.461-0.399-6.446-3.051l-11.253-15.569c-0.749-1.035-1.789-1.824-2.99-2.265l-12.053-4.427l18.01-18.372
		c2.884-2.686,5.519-2.514,8.622-2.514V8.413H241.15l-23.464,23.936v4.997c4.671,2.077,8.359,8.056,10.712,11.31l9.787,13.541
		h43.627v-3.794c-1.044,0-4.417,0.208-4.417-4.27V16.477C277.395,11.999,280.768,12.207,281.812,12.207"/>
	<path fill="#000000" d="M214.416,54.133V16.476c0-4.478,3.374-4.269,4.416-4.269V8.413h-23.737v3.794c1.042,0,4.417-0.209,4.417,4.269v37.657
		c0,4.478-3.375,4.27-4.417,4.27v3.794h23.737v-3.794C217.79,58.403,214.416,58.611,214.416,54.133"/>
	<path fill="#000000" d="M28.632,54.133V16.476c0-4.478,3.374-4.269,4.416-4.269V8.413H9.311v3.794c1.042,0,4.417-0.209,4.417,4.269v37.657
		c0,4.478-3.375,4.27-4.417,4.27v3.794h23.737v-3.794C32.006,58.403,28.632,58.611,28.632,54.133"/>
	<path fill="#000000" d="M65.845,55.354L54.593,39.785c-0.749-1.036-1.79-1.825-2.989-2.264L39.55,33.093l18.01-18.372
		c2.884-2.686,5.518-2.514,8.621-2.514V8.413H55.366L31.903,32.348v4.998c4.671,2.077,8.36,8.055,10.712,11.31l9.787,13.541
		l19.888,0.001v-3.794C69.018,58.404,67.83,58.005,65.845,55.354"/>
	<path fill="#000000" d="M83.547,80.093c1.043,0,4.416-0.208,4.416,4.27v37.657c0,4.478-3.373,4.27-4.416,4.27v3.794h23.738v-3.794
		c-1.043,0-4.418,0.208-4.418-4.27V84.363c0-4.478,3.375-4.27,4.418-4.27v-3.794H83.547V80.093z"/>
	<path fill="#000000" d="M158.707,80.093c1.043,0,4.417-0.208,4.417,4.27v27.793l-32.603-35.857h-16.708v3.776l4.29,4.69v37.255
		c0,4.478-3.375,4.27-4.417,4.27v3.794h15.105v-3.794c-1.042,0-4.416,0.208-4.416-4.27V91.681l34.887,38.404l10.133-0.001V84.363
		c0-4.478,3.375-4.27,4.417-4.27v-3.794h-15.105V80.093z"/>
	<path fill="#000000" d="M43.286,111.66L24.207,76.3H9.311v3.778l4.295,7.86v34.082c0,4.478-3.374,4.27-4.417,4.27v3.794h15.106v-3.794
		c-1.042,0-4.416,0.208-4.416-4.27V99.651l16.402,30.433h5.591l15.382-34.618v26.554c0,4.478-3.375,4.27-4.418,4.27v3.794h23.738
		v-3.794c-1.043,0-4.417,0.208-4.417-4.27V84.364c0-4.478,3.374-4.27,4.417-4.27V76.3H59.015L43.286,111.66z"/>
	<path fill="#000000" d="M259.874,122.02V84.363c0-4.478,3.373-4.27,4.417-4.27v-3.794h-23.739v3.794c1.044,0,4.419-0.208,4.419,4.27v37.657
		c0,4.478-3.375,4.27-4.419,4.27v3.794h23.739v-3.794C263.247,126.29,259.874,126.498,259.874,122.02"/>
	<path fill="#000000" d="M325.699,97.679l-15.341-21.381h-23.749l-23.466,23.937v4.997c4.671,2.076,8.361,8.055,10.712,11.311l9.787,13.54
		l19.89,0.002v-3.794c-3.272,0-4.461-0.4-6.445-3.05l-11.254-15.57c-0.748-1.036-1.788-1.824-2.988-2.265l-12.054-4.427
		l18.012-18.372c2.466-2.298,3.462-2.498,6.015-2.509c2.459,0,3.547,0.614,5.944,3.946l13.738,19.147v18.829
		c0,4.478-3.374,4.27-4.416,4.27v3.794h23.737v-3.794c-1.042,0-4.417,0.208-4.417-4.269v-19.117l14.423-19.882
		c2.497-3.229,4.696-2.929,7.887-2.929v-3.795h-10.477L325.699,97.679z"/>
	<path fill="#000000" d="M178.212,49.766c0,12.234-30.389,9.484-39.876-9.144h-3.794v21.575h3.794l4.932-6.561c0,0,8.852,7.557,24.631,7.557
		c12.559,0,22.779-6.435,22.779-18.126c0-23.213-44.252-18.219-44.252-26.59c0-7.945,31.245-9.165,37.455,5.933h3.814V8.413h-3.794
		h-0.003l-3.189,4.354c0,0-6.444-5.615-20.95-5.615c-14.46,0-25.352,5.991-25.352,15.631
		C134.407,43.689,178.212,38.346,178.212,49.766"/>
	<path fill="#000000" d="M223.625,117.654c0,12.233-30.388,9.484-39.876-9.144h-3.794v21.574h3.794l4.932-6.561c0,0,8.853,7.557,24.632,7.557
		c12.559,0,22.777-6.434,22.777-18.125c0-23.213-44.249-18.22-44.249-26.591c0-7.945,31.243-9.165,37.454,5.934h3.812V76.3h-3.792
		h-0.003l-3.191,4.354c0,0-6.444-5.614-20.949-5.614c-14.458,0-25.352,5.991-25.352,15.631
		C179.82,111.576,223.625,106.233,223.625,117.654"/>
</g>
<g>
</g>
<g>
</g>
<g>
</g>
<g>
</g>
<g>
</g>
<g>
</g>
</svg>
